<?xml version="1.0" encoding="utf-8"?>
<!-- Generator: Adobe Illustrator 26.3.1, SVG Export Plug-In . SVG Version: 6.00 Build 0)  -->
<svg version="1.1" id="Livello_1" xmlns="http://www.w3.org/2000/svg" xmlns:xlink="http://www.w3.org/1999/xlink" x="0px" y="0px"
	 viewBox="0 0 1357.4 370.5" style="enable-background:new 0 0 1357.4 370.5;" xml:space="preserve">
<style type="text/css">
	.st0{fill:#E40920;}
</style>
<g>
	<g>
		
			<rect x="898" y="8.9" transform="matrix(6.123234e-17 -1 1 6.123234e-17 869.9243 942.5214)" class="st0" width="16.4" height="54.8"/>
	</g>
	<g>
		<rect x="898" y="8.9" class="st0" width="16.4" height="54.8"/>
	</g>
	<g>
		<path d="M881.1,352.1v-33.6h12.3c2.2,0,4,0.2,5.4,0.7c1.4,0.5,2.5,1.2,3.4,2.1c0.8,0.9,1.4,1.9,1.7,3c0.3,1.1,0.5,2.3,0.5,3.6
			c0,1.9-0.4,3.4-1.1,4.6c-0.8,1.2-1.7,2.2-3,2.9c-1.2,0.7-2.6,1.2-4.1,1.5c-1.5,0.3-3.1,0.4-4.6,0.4h-7.2v14.8H881.1z M891.5,334.6
			c1.5,0,2.8-0.1,4-0.3c1.2-0.2,2.2-0.5,3-1s1.5-1.2,1.9-2.1c0.5-0.9,0.7-2,0.7-3.5c0-2.1-0.7-3.7-2.1-4.8c-1.4-1.1-3.6-1.6-6.6-1.6
			h-8.2v13.3H891.5z"/>
		<path d="M918.9,352.7c-1.6,0-3-0.3-4.4-0.8c-1.4-0.5-2.5-1.3-3.5-2.4c-1-1.1-1.8-2.4-2.4-4c-0.6-1.6-0.9-3.4-0.9-5.5
			c0-1.8,0.2-3.4,0.7-5c0.5-1.5,1.2-2.9,2.1-4c0.9-1.1,2.1-2.1,3.5-2.7c1.4-0.7,3-1,4.9-1c1.9,0,3.5,0.3,4.9,1
			c1.4,0.7,2.6,1.6,3.5,2.7c0.9,1.1,1.6,2.5,2.1,4c0.5,1.6,0.7,3.2,0.7,5c0,1.9-0.3,3.7-0.8,5.2s-1.3,2.9-2.3,4
			c-1,1.1-2.2,2-3.5,2.6C922.1,352.4,920.5,352.7,918.9,352.7z M927.1,340c0-1.4-0.2-2.8-0.5-4c-0.3-1.2-0.8-2.3-1.4-3.2
			s-1.5-1.6-2.5-2.2c-1-0.5-2.3-0.8-3.8-0.8c-1.5,0-2.7,0.3-3.8,0.9c-1,0.6-1.9,1.3-2.5,2.3c-0.7,0.9-1.1,2-1.4,3.3
			c-0.3,1.2-0.5,2.5-0.5,3.8c0,1.5,0.2,2.9,0.5,4.1s0.9,2.3,1.6,3.2c0.7,0.9,1.5,1.6,2.6,2.1c1,0.5,2.2,0.7,3.5,0.7
			c1.5,0,2.7-0.3,3.8-0.9c1-0.6,1.9-1.3,2.5-2.3c0.7-1,1.1-2.1,1.4-3.3C926.9,342.6,927.1,341.3,927.1,340z"/>
		<path d="M955.6,348.4l6.3-20.4h2.8l-7.8,24.1h-3l-5.3-20.3h-0.1l-5.4,20.3h-3.4l-7.4-24.1h2.8l6.2,20.6l5.6-20.6h3.1L955.6,348.4z
			"/>
		<path d="M970.5,340.7c0,1.3,0.2,2.5,0.5,3.7c0.3,1.2,0.8,2.2,1.5,3c0.7,0.9,1.5,1.5,2.5,2.1c1,0.5,2.2,0.8,3.5,0.8
			c1.8,0,3.4-0.5,4.7-1.4c1.3-1,2.2-2.3,2.6-4.1h3.1c-0.3,1.2-0.8,2.2-1.4,3.2c-0.6,1-1.3,1.8-2.1,2.6c-0.8,0.7-1.8,1.3-3,1.7
			c-1.1,0.4-2.5,0.6-4,0.6c-1.9,0-3.6-0.3-5-1c-1.4-0.7-2.5-1.5-3.4-2.7c-0.9-1.1-1.6-2.5-2-4c-0.4-1.5-0.7-3.2-0.7-5s0.3-3.4,0.8-5
			c0.5-1.6,1.2-2.9,2.2-4.1c0.9-1.2,2.1-2.1,3.5-2.8c1.4-0.7,2.9-1,4.7-1c3.3,0,5.9,1.1,7.8,3.4c1.9,2.3,2.8,5.6,2.8,10H970.5z
			 M986.3,338.3c0-1.2-0.2-2.3-0.5-3.3c-0.3-1-0.8-1.9-1.4-2.7c-0.6-0.8-1.4-1.4-2.4-1.8c-1-0.5-2.1-0.7-3.3-0.7
			c-1.2,0-2.3,0.2-3.3,0.7c-0.9,0.5-1.8,1.1-2.4,1.9c-0.7,0.8-1.2,1.7-1.6,2.7c-0.4,1-0.7,2.1-0.8,3.3H986.3z"/>
		<path d="M997.7,352.1h-2.8v-24.1h2.8v4.5h0.1c0.8-1.9,1.8-3.3,3-4c1.2-0.8,2.9-1.1,4.9-1.1v3c-1.6,0-2.9,0.2-3.9,0.7
			c-1,0.5-1.8,1.2-2.4,2.1c-0.6,0.9-1,2-1.3,3.2c-0.2,1.2-0.3,2.5-0.3,3.8V352.1z"/>
		<path d="M1012,340.7c0,1.3,0.2,2.5,0.5,3.7c0.3,1.2,0.8,2.2,1.5,3c0.7,0.9,1.5,1.5,2.5,2.1c1,0.5,2.2,0.8,3.5,0.8
			c1.8,0,3.4-0.5,4.7-1.4c1.3-1,2.2-2.3,2.6-4.1h3.1c-0.3,1.2-0.8,2.2-1.4,3.2c-0.6,1-1.3,1.8-2.1,2.6c-0.8,0.7-1.8,1.3-3,1.7
			c-1.1,0.4-2.5,0.6-4,0.6c-1.9,0-3.6-0.3-5-1c-1.4-0.7-2.5-1.5-3.4-2.7c-0.9-1.1-1.6-2.5-2-4c-0.4-1.5-0.7-3.2-0.7-5s0.3-3.4,0.8-5
			c0.5-1.6,1.2-2.9,2.2-4.1c0.9-1.2,2.1-2.1,3.5-2.8c1.4-0.7,2.9-1,4.7-1c3.3,0,5.9,1.1,7.8,3.4c1.9,2.3,2.8,5.6,2.8,10H1012z
			 M1027.7,338.3c0-1.2-0.2-2.3-0.5-3.3c-0.3-1-0.8-1.9-1.4-2.7c-0.6-0.8-1.4-1.4-2.4-1.8c-1-0.5-2.1-0.7-3.3-0.7
			c-1.2,0-2.3,0.2-3.3,0.7c-0.9,0.5-1.8,1.1-2.4,1.9c-0.7,0.8-1.2,1.7-1.6,2.7c-0.4,1-0.7,2.1-0.8,3.3H1027.7z"/>
		<path d="M1054.8,318.5h2.8v33.6h-2.8v-4.2h-0.1c-0.4,0.8-0.9,1.5-1.6,2.1c-0.6,0.6-1.3,1.1-2.1,1.5c-0.8,0.4-1.5,0.7-2.4,0.9
			c-0.8,0.2-1.6,0.3-2.4,0.3c-2,0-3.6-0.3-5-1c-1.4-0.7-2.5-1.5-3.4-2.7c-0.9-1.1-1.5-2.5-1.9-4c-0.4-1.6-0.6-3.2-0.6-5
			c0-1.7,0.2-3.3,0.7-4.8c0.4-1.6,1.1-2.9,2-4.1c0.9-1.2,2-2.1,3.4-2.8c1.4-0.7,2.9-1,4.8-1c1.7,0,3.3,0.4,4.9,1.1
			c1.6,0.8,2.8,1.9,3.7,3.4V318.5z M1054.8,339.9c0-1.4-0.2-2.7-0.6-3.9c-0.4-1.2-0.9-2.3-1.6-3.2c-0.7-0.9-1.6-1.6-2.6-2.2
			c-1-0.5-2.2-0.8-3.4-0.8c-1.5,0-2.7,0.3-3.8,0.9c-1.1,0.6-1.9,1.4-2.6,2.4c-0.7,1-1.2,2.2-1.5,3.5c-0.3,1.3-0.4,2.7-0.4,4.3
			c0,1.5,0.2,2.9,0.6,4c0.4,1.2,1,2.2,1.7,3c0.7,0.8,1.6,1.4,2.6,1.8c1,0.4,2.1,0.6,3.3,0.6c1.3,0,2.5-0.3,3.5-0.8
			c1-0.5,1.9-1.2,2.6-2.2c0.7-0.9,1.2-2,1.6-3.3C1054.6,342.7,1054.8,341.4,1054.8,339.9z"/>
		<path d="M1080.7,352.1h-2.8v-33.6h2.8v13.3c0.9-1.5,2.1-2.6,3.7-3.4c1.6-0.8,3.2-1.1,4.9-1.1c1.8,0,3.4,0.3,4.8,1
			c1.4,0.7,2.5,1.6,3.4,2.8c0.9,1.2,1.5,2.5,2,4.1c0.4,1.6,0.7,3.2,0.7,4.8c0,1.8-0.2,3.4-0.6,5c-0.4,1.6-1,2.9-1.9,4
			c-0.9,1.1-2,2-3.4,2.7c-1.4,0.7-3,1-5,1c-0.8,0-1.6-0.1-2.4-0.3c-0.8-0.2-1.6-0.5-2.4-0.9c-0.8-0.4-1.5-0.9-2.1-1.5
			c-0.6-0.6-1.2-1.3-1.6-2.1h-0.1V352.1z M1080.7,339.9c0,1.5,0.2,2.8,0.5,4.1c0.4,1.3,0.9,2.3,1.6,3.3c0.7,0.9,1.5,1.6,2.6,2.2
			c1,0.5,2.2,0.8,3.5,0.8c1.2,0,2.3-0.2,3.3-0.6s1.9-1,2.6-1.8c0.7-0.8,1.3-1.8,1.7-3c0.4-1.2,0.6-2.5,0.6-4
			c0.1-1.5-0.1-2.9-0.4-4.3c-0.3-1.3-0.8-2.5-1.5-3.5c-0.7-1-1.6-1.8-2.6-2.4c-1.1-0.6-2.3-0.9-3.8-0.9c-1.3,0-2.4,0.3-3.4,0.8
			c-1,0.5-1.9,1.3-2.6,2.2c-0.7,0.9-1.2,2-1.6,3.2C1080.9,337.3,1080.7,338.6,1080.7,339.9z"/>
		<path d="M1105.9,358.6c0.4,0.1,0.8,0.1,1.1,0.2c0.4,0.1,0.8,0.1,1.2,0.1c0.8,0,1.4-0.2,1.9-0.7c0.5-0.5,0.9-1.1,1.2-1.8
			c0.3-0.7,0.6-1.4,0.8-2.2c0.2-0.8,0.5-1.4,0.7-1.9l-9.4-24.3h3.1l7.7,20.7l7.7-20.7h3l-9,23.8c-0.6,1.5-1.1,2.9-1.6,4.1
			c-0.5,1.2-1.1,2.2-1.6,3.1c-0.6,0.9-1.2,1.5-1.9,2c-0.7,0.4-1.5,0.7-2.5,0.7c-0.5,0-1,0-1.4-0.1c-0.5-0.1-0.9-0.1-1.2-0.2V358.6z"
			/>
		<path d="M1166.6,328.3c-0.7-2.9-1.9-4.9-3.6-6.1s-4.1-1.8-6.9-1.8c-2,0-3.8,0.4-5.2,1.2c-1.5,0.8-2.7,1.9-3.6,3.3
			c-0.9,1.4-1.6,2.9-2.1,4.7c-0.5,1.8-0.7,3.7-0.7,5.7c0,1.9,0.2,3.7,0.6,5.5c0.4,1.8,1,3.4,1.9,4.8c0.9,1.4,2.1,2.6,3.6,3.4
			c1.5,0.9,3.4,1.3,5.7,1.3c1.4,0,2.7-0.2,3.9-0.7c1.2-0.5,2.2-1.1,3.1-1.9s1.6-1.8,2.2-2.9c0.6-1.1,1.1-2.3,1.4-3.7h3.3
			c-0.4,1.6-0.9,3.1-1.6,4.6c-0.7,1.4-1.7,2.7-2.8,3.8c-1.2,1.1-2.6,2-4.2,2.6c-1.7,0.6-3.6,1-5.8,1c-2.6,0-4.8-0.5-6.6-1.4
			c-1.8-0.9-3.3-2.2-4.5-3.8c-1.2-1.6-2-3.5-2.5-5.6c-0.5-2.1-0.8-4.4-0.8-6.8c0-3.2,0.4-5.9,1.2-8.2c0.8-2.2,1.9-4.1,3.3-5.5
			c1.4-1.4,3-2.4,4.9-3.1c1.9-0.6,4-1,6.2-1c1.7,0,3.3,0.2,4.8,0.7c1.5,0.4,2.8,1.1,3.9,2c1.1,0.9,2.1,2,2.8,3.3
			c0.7,1.3,1.2,2.9,1.5,4.6H1166.6z"/>
		<path d="M1185.6,352.7c-1.6,0-3-0.3-4.4-0.8c-1.4-0.5-2.5-1.3-3.5-2.4c-1-1.1-1.8-2.4-2.4-4c-0.6-1.6-0.9-3.4-0.9-5.5
			c0-1.8,0.2-3.4,0.7-5c0.5-1.5,1.2-2.9,2.1-4c0.9-1.1,2.1-2.1,3.5-2.7c1.4-0.7,3-1,4.9-1c1.9,0,3.5,0.3,4.9,1
			c1.4,0.7,2.6,1.6,3.5,2.7c0.9,1.1,1.6,2.5,2.1,4c0.5,1.6,0.7,3.2,0.7,5c0,1.9-0.3,3.7-0.8,5.2s-1.3,2.9-2.3,4
			c-1,1.1-2.2,2-3.5,2.6S1187.3,352.7,1185.6,352.7z M1193.8,340c0-1.4-0.2-2.8-0.5-4c-0.3-1.2-0.8-2.3-1.4-3.2s-1.5-1.6-2.5-2.2
			c-1-0.5-2.3-0.8-3.8-0.8c-1.5,0-2.7,0.3-3.8,0.9c-1,0.6-1.9,1.3-2.5,2.3c-0.7,0.9-1.1,2-1.4,3.3c-0.3,1.2-0.5,2.5-0.5,3.8
			c0,1.5,0.2,2.9,0.5,4.1s0.9,2.3,1.6,3.2c0.7,0.9,1.5,1.6,2.6,2.1c1,0.5,2.2,0.7,3.5,0.7c1.5,0,2.7-0.3,3.8-0.9
			c1-0.6,1.9-1.3,2.5-2.3c0.7-1,1.1-2.1,1.4-3.3C1193.7,342.6,1193.8,341.3,1193.8,340z"/>
		<path d="M1204.7,352.1h-2.8v-24.1h2.8v3.4c1.1-1.2,2.3-2.1,3.5-2.9c1.2-0.7,2.6-1.1,4.3-1.1c1.5,0,2.9,0.3,4.1,0.8
			c1.3,0.5,2.3,1.4,3.2,2.7c0.6,0.9,0.9,1.8,1,2.7c0.1,0.9,0.2,1.9,0.2,2.9v15.8h-2.8v-15.8c0-2.2-0.5-3.8-1.4-4.9
			c-1-1.1-2.6-1.6-4.8-1.6c-0.9,0-1.7,0.1-2.4,0.4c-0.7,0.3-1.4,0.6-1.9,1c-0.6,0.4-1.1,0.9-1.5,1.5c-0.4,0.6-0.7,1.1-0.9,1.8
			c-0.3,0.8-0.5,1.5-0.5,2.2c-0.1,0.7-0.1,1.5-0.1,2.3V352.1z"/>
		<path d="M1236.3,352.2c-0.3,0.1-0.8,0.2-1.4,0.3c-0.6,0.2-1.2,0.2-1.9,0.2c-1.4,0-2.5-0.3-3.2-1c-0.7-0.7-1.1-2-1.1-3.8v-17.7
			h-3.4v-2.3h3.4v-6.7h2.8v6.7h4.5v2.3h-4.5v16.5c0,0.6,0,1.1,0,1.5c0,0.4,0.1,0.8,0.3,1.1c0.2,0.3,0.4,0.5,0.7,0.6
			c0.3,0.1,0.8,0.2,1.4,0.2c0.4,0,0.8,0,1.1-0.1c0.4-0.1,0.8-0.1,1.1-0.2V352.2z"/>
		<path d="M1243.7,352.1h-2.8v-24.1h2.8v4.5h0.1c0.8-1.9,1.8-3.3,3-4c1.2-0.8,2.9-1.1,4.9-1.1v3c-1.6,0-2.9,0.2-3.9,0.7
			c-1,0.5-1.8,1.2-2.4,2.1c-0.6,0.9-1,2-1.3,3.2c-0.2,1.2-0.3,2.5-0.3,3.8V352.1z"/>
		<path d="M1267.4,338c0.5-0.1,1.2-0.2,1.9-0.3c0.7-0.1,1.3-0.3,1.8-0.5c0.5-0.2,0.8-0.6,0.9-1.1c0.1-0.5,0.2-1,0.2-1.4
			c0-1.4-0.5-2.6-1.4-3.5c-0.9-0.9-2.5-1.4-4.6-1.4c-1,0-1.8,0.1-2.7,0.3c-0.8,0.2-1.5,0.5-2.1,0.9c-0.6,0.4-1.1,1-1.5,1.7
			c-0.4,0.7-0.6,1.6-0.8,2.6h-2.8c0.1-1.4,0.4-2.6,1-3.7c0.6-1,1.3-1.8,2.2-2.5c0.9-0.6,1.9-1.1,3.1-1.4c1.2-0.3,2.4-0.4,3.7-0.4
			c1.2,0,2.4,0.1,3.4,0.4c1.1,0.3,2,0.7,2.8,1.3c0.8,0.6,1.4,1.3,1.9,2.3c0.5,1,0.7,2.1,0.7,3.5v13.1c0,1.1,0.2,1.8,0.6,2.1
			c0.4,0.3,1.2,0.2,2.4-0.2v2.2c-0.2,0.1-0.5,0.2-1,0.3c-0.4,0.1-0.8,0.2-1.2,0.2c-0.4,0-0.9,0-1.3-0.1c-0.5-0.1-0.8-0.2-1.1-0.4
			c-0.3-0.2-0.5-0.5-0.7-0.8c-0.2-0.3-0.3-0.7-0.3-1.1c-0.1-0.4-0.1-0.8-0.1-1.2c-1.2,1.3-2.5,2.3-4.1,3c-1.5,0.7-3.2,1-4.9,1
			c-1.1,0-2.1-0.1-3.1-0.4c-1-0.3-1.8-0.7-2.6-1.3s-1.3-1.3-1.8-2.2c-0.4-0.9-0.7-1.9-0.7-3.1c0-4.1,2.8-6.5,8.4-7.3L1267.4,338z
			 M1272.1,339.4c-1.2,0.5-2.4,0.8-3.6,1c-1.2,0.2-2.4,0.3-3.6,0.4c-2.1,0.2-3.8,0.6-5,1.4c-1.2,0.8-1.8,2-1.8,3.7
			c0,0.7,0.1,1.4,0.4,1.9c0.3,0.5,0.7,1,1.2,1.4c0.5,0.4,1,0.6,1.7,0.8c0.6,0.2,1.3,0.3,1.9,0.3c1.1,0,2.2-0.1,3.3-0.4
			c1.1-0.3,2-0.7,2.8-1.3c0.8-0.6,1.5-1.3,2-2.2c0.5-0.9,0.7-1.9,0.7-3.1V339.4z"/>
		<path d="M1300.9,318.5h2.8v33.6h-2.8v-4.2h-0.1c-0.4,0.8-0.9,1.5-1.6,2.1c-0.6,0.6-1.3,1.1-2.1,1.5c-0.8,0.4-1.5,0.7-2.4,0.9
			c-0.8,0.2-1.6,0.3-2.4,0.3c-2,0-3.6-0.3-5-1c-1.4-0.7-2.5-1.5-3.4-2.7c-0.9-1.1-1.5-2.5-1.9-4c-0.4-1.6-0.6-3.2-0.6-5
			c0-1.7,0.2-3.3,0.7-4.8c0.4-1.6,1.1-2.9,2-4.1c0.9-1.2,2-2.1,3.4-2.8c1.4-0.7,2.9-1,4.8-1c1.7,0,3.3,0.4,4.9,1.1
			c1.6,0.8,2.8,1.9,3.7,3.4V318.5z M1300.9,339.9c0-1.4-0.2-2.7-0.6-3.9c-0.4-1.2-0.9-2.3-1.6-3.2c-0.7-0.9-1.6-1.6-2.6-2.2
			c-1-0.5-2.2-0.8-3.4-0.8c-1.5,0-2.7,0.3-3.8,0.9c-1.1,0.6-1.9,1.4-2.6,2.4c-0.7,1-1.2,2.2-1.5,3.5c-0.3,1.3-0.4,2.7-0.4,4.3
			c0,1.5,0.2,2.9,0.6,4c0.4,1.2,1,2.2,1.7,3c0.7,0.8,1.6,1.4,2.6,1.8c1,0.4,2.1,0.6,3.3,0.6c1.3,0,2.5-0.3,3.5-0.8
			c1-0.5,1.9-1.2,2.6-2.2c0.7-0.9,1.2-2,1.6-3.3C1300.7,342.7,1300.9,341.4,1300.9,339.9z"/>
		<path d="M1312.4,340.7c0,1.3,0.2,2.5,0.5,3.7c0.3,1.2,0.8,2.2,1.5,3c0.7,0.9,1.5,1.5,2.5,2.1c1,0.5,2.2,0.8,3.5,0.8
			c1.8,0,3.4-0.5,4.7-1.4c1.3-1,2.2-2.3,2.6-4.1h3.1c-0.3,1.2-0.8,2.2-1.4,3.2c-0.6,1-1.3,1.8-2.1,2.6c-0.8,0.7-1.8,1.3-3,1.7
			c-1.1,0.4-2.5,0.6-4,0.6c-1.9,0-3.6-0.3-5-1c-1.4-0.7-2.5-1.5-3.4-2.7c-0.9-1.1-1.6-2.5-2-4c-0.4-1.5-0.7-3.2-0.7-5s0.3-3.4,0.8-5
			c0.5-1.6,1.2-2.9,2.2-4.1c0.9-1.2,2.1-2.1,3.5-2.8c1.4-0.7,2.9-1,4.7-1c3.3,0,5.9,1.1,7.8,3.4c1.9,2.3,2.8,5.6,2.8,10H1312.4z
			 M1328.2,338.3c0-1.2-0.2-2.3-0.5-3.3c-0.3-1-0.8-1.9-1.4-2.7c-0.6-0.8-1.4-1.4-2.4-1.8c-1-0.5-2.1-0.7-3.3-0.7
			c-1.2,0-2.3,0.2-3.3,0.7c-0.9,0.5-1.8,1.1-2.4,1.9c-0.7,0.8-1.2,1.7-1.6,2.7c-0.4,1-0.7,2.1-0.8,3.3H1328.2z"/>
		<path d="M1339.6,352.1h-2.8v-24.1h2.8v4.5h0.1c0.8-1.9,1.8-3.3,3-4c1.2-0.8,2.9-1.1,4.9-1.1v3c-1.6,0-2.9,0.2-3.9,0.7
			c-1,0.5-1.8,1.2-2.4,2.1c-0.6,0.9-1,2-1.3,3.2c-0.2,1.2-0.3,2.5-0.3,3.8V352.1z"/>
	</g>
	<path d="M13.1,23.3h53.3v103.4h114.7V23.3h53.3v254.6h-53.3V170.8H66.4v107.1H13.1V23.3z"/>
	<path d="M309.3,270c-14-7.8-24.8-19.1-32.6-33.9c-7.7-14.8-11.6-32.4-11.6-52.8V183c0-20.3,3.9-37.8,11.7-52.5
		c7.8-14.6,18.7-25.9,32.7-33.8s30.4-11.8,49.2-11.8c18.9,0,35.4,3.9,49.5,11.7c14.1,7.8,25,19.1,32.7,33.7
		c7.8,14.6,11.6,32.2,11.6,52.7v0.3c0,20.6-3.9,38.2-11.6,52.9c-7.7,14.7-18.6,26-32.5,33.8c-14,7.8-30.5,11.7-49.6,11.7
		C339.9,281.8,323.3,277.8,309.3,270z M380.9,234.6c6.1-4.5,10.8-11.1,14.2-19.8c3.4-8.6,5-19.1,5-31.5V183
		c0-12.1-1.7-22.5-5.1-31.1c-3.4-8.6-8.2-15.2-14.4-19.8c-6.2-4.5-13.4-6.8-21.8-6.8c-8.2,0-15.4,2.3-21.6,6.9
		c-6.2,4.6-11,11.2-14.4,19.8c-3.4,8.6-5.1,18.9-5.1,31v0.3c0,12.4,1.7,22.8,5,31.5c3.4,8.6,8.1,15.2,14.4,19.8
		c6.2,4.5,13.6,6.8,22.1,6.8C367.6,241.4,374.8,239.1,380.9,234.6z"/>
	<path d="M512.5,274.2c-12.3-5.1-21.8-12.1-28.7-21.1s-10.9-19.4-12.3-31.3l-0.2-1.6h50.3l0.3,1.6c1.6,7.4,5.4,13.2,11.1,17.3
		c5.8,4.1,13.8,6.2,24,6.2c6.6,0,12.2-0.8,16.8-2.4c4.6-1.6,8.1-3.8,10.7-6.8c2.5-2.9,3.8-6.5,3.8-10.6v-0.2c0-5.1-1.8-9.1-5.5-12.2
		c-3.6-3.1-10.1-5.6-19.4-7.6l-32.1-6.9c-18.3-3.8-32.2-10.2-41.5-19.4c-9.3-9.2-13.9-20.8-13.9-34.9v-0.2c0-12.1,3.3-22.6,9.8-31.4
		c6.5-8.8,15.8-15.7,27.7-20.6c11.9-4.9,25.9-7.3,41.9-7.3c16.7,0,30.9,2.7,42.6,8c11.7,5.4,20.7,12.6,27,21.6
		c6.3,9.1,9.6,19.1,10,30.2v1.8h-47.5l-0.2-1.4c-0.8-6.7-4-12.3-9.4-16.8c-5.5-4.5-13-6.8-22.5-6.8c-5.9,0-11,0.8-15.3,2.5
		c-4.4,1.6-7.7,3.9-10.1,6.9c-2.4,2.9-3.5,6.5-3.5,10.6v0.2c0,4.8,1.9,8.9,5.6,12.2c3.8,3.3,10.4,5.9,19.9,7.9l32.1,6.9
		c19.9,4.1,34.1,10.3,42.8,18.5c8.6,8.2,13,19.3,13,33.2v0.2c0,12.3-3.5,23.1-10.6,32.3c-7.1,9.2-16.8,16.3-29.2,21.4
		c-12.4,5.1-26.7,7.7-43,7.7C539.6,281.8,524.8,279.2,512.5,274.2z"/>
	<path d="M665.2,88.8h51.5v33h1.2c3.4-7.6,7.9-14.2,13.5-19.8c5.6-5.5,12.1-9.8,19.6-12.7c7.5-2.9,15.7-4.4,24.6-4.4
		c16,0,29.8,3.9,41.3,11.7c11.5,7.8,20.4,19.1,26.6,33.8c6.2,14.7,9.4,32.3,9.4,52.7v0.2c0,20.5-3.1,38-9.3,52.7
		c-6.2,14.7-15,26-26.4,33.9c-11.4,7.9-25.1,11.8-40.9,11.8c-8.9,0-17.2-1.5-24.9-4.4c-7.6-2.9-14.3-7.1-19.9-12.4
		c-5.6-5.3-10.2-11.8-13.8-19.3h-1.1v94h-51.5V88.8z M780.9,232.3c6.2-4.5,11-11,14.4-19.3c3.4-8.4,5-18.2,5-29.6v-0.2
		c0-11.5-1.7-21.4-5.1-29.7c-3.4-8.3-8.2-14.7-14.5-19.1c-6.2-4.5-13.6-6.7-22.1-6.7c-8.4,0-15.7,2.3-22.1,6.8
		c-6.4,4.5-11.3,11-14.8,19.3c-3.5,8.4-5.3,18.2-5.3,29.6v0.2c0,11.3,1.8,21.1,5.4,29.5c3.6,8.4,8.5,14.8,14.8,19.3
		c6.3,4.5,13.6,6.8,22,6.8C767.2,239.1,774.6,236.8,780.9,232.3z"/>
	<path d="M880.4,88.8h51.7v189.1h-51.7V88.8z"/>
	<path d="M995,268.5c-10.1-8.8-15.2-23.3-15.2-43.6v-97.4h-26.3V88.8h26.3V42.5h52v46.2h34.6v38.8h-34.6v91.7c0,8.8,2,15,5.9,18.4
		c3.9,3.5,9.8,5.2,17.6,5.2c2.3,0,4.4-0.1,6.2-0.3c1.8-0.2,3.4-0.4,4.9-0.6v37.8c-2.8,0.5-6.3,0.9-10.5,1.3c-4.2,0.4-9,0.6-14.4,0.6
		C1020.7,281.8,1005.2,277.3,995,268.5z"/>
	<path d="M1116.2,273.5c-9.6-4.9-17.1-11.6-22.4-20.3c-5.4-8.6-8-18.5-8-29.6v-0.4c0-17.2,6.4-30.7,19.3-40.5
		c12.9-9.8,31-15.5,54.4-17l73.7-4.6v32.1l-66,4.4c-9.9,0.6-17.4,2.9-22.6,6.9c-5.2,4-7.8,9.4-7.8,16.1v0.4c0,6.9,2.6,12.4,7.9,16.3
		c5.3,3.9,12.4,5.9,21.3,5.9c7.6,0,14.5-1.5,20.6-4.5c6.1-3,10.8-7.1,14.3-12.3c3.5-5.2,5.2-11.1,5.2-17.6v-57.5
		c0-8.3-2.6-14.9-7.9-19.8c-5.3-4.8-13-7.2-23.1-7.2c-9.6,0-17.3,2-22.9,5.9c-5.6,3.9-9.1,9-10.4,15.1l-0.4,1.6h-47.3l0.2-2.1
		c1.1-11.6,5-22,11.7-31c6.8-9.1,16.2-16.1,28.2-21.3c12.1-5.1,26.4-7.7,43-7.7c16.3,0,30.5,2.6,42.5,7.8c12,5.2,21.3,12.6,28,22.1
		c6.6,9.5,10,20.6,10,33.3v129.7h-51.5v-28.1h-1.1c-3.6,6.4-8.2,11.9-13.8,16.6c-5.5,4.7-11.9,8.3-19,10.8c-7.1,2.5-14.8,3.7-23,3.7
		C1136.8,280.9,1125.7,278.4,1116.2,273.5z"/>
	<path d="M1292.1,23.3h51.5v254.6h-51.5V23.3z"/>
</g>
</svg>
